Genre:Comedy/Drama/Romance
Language:English
IMDb:http://www.imdb.com/title/tt1261945/
Source Video:Relizlab.Thanks!
Source Audio:OWN PRISM&LKRG.Thanks!
Sample:YES
Subtitles: ROMANA
Encoder: Tony2
.............................................
General
Complete name : Sex And The City 2. 2010 TS XVID.FEEL-FREE
Format : AVI
Format/Info : Audio Video Interleave
File size : 1.56 GiB
Duration : 2h 16mn
Overall bit rate : 1 640 Kbps
..............................................
Video
ID : 0
Format : MPEG-4 Visual
Format profile : Simple@L3
Format settings, BVOP : Yes
Format settings, QPel : No
Format settings, GMC : No warppoints
Format settings, Matrix : Default (H.263)
Codec ID : XVID
Codec ID/Hint : XviD
Duration : 2h 16mn
Bit rate : 1 500 Kbps
Width : 656 pixels
Height : 328 pixels
Display aspect ratio : 2.000
Frame rate : 25.000 fps
Resolution : 24 bits
Scan type : Progressive
Bits/(Pixel*Frame) : 0.279
Stream size : 1.43 GiB (91%)
...............................................
Audio
ID : 1
Format : MPEG Audio
Format version : Version 1
Format profile : Layer 3
Format settings, Mode : Joint stereo / MS Stereo
Codec ID : 55
Codec ID/Hint : MP3
Duration : 2h 16mn
Bit rate mode : Constant
Bit rate : 128 Kbps
Channel(s) : 2 channels
Sampling rate : 44.1 KHz
Resolution : 16 bits
Stream size : 125 MiB (8%)
Alignment : Aligned on interleaves
Interleave, duration : 26 ms (0.65 video frame)
................................................
Plot:
While wrestling with the pressures of life, love, and work in Manhattan, Carrie, Miranda,
and Charlotte join Samantha for a trip to Morocco, where Samantha's ex is filming a new movie
...................................................
Screenshots:
 
http://postimg.com/image/19000/18212.jpg
 
http://postimg.com/image/19000/18213.jpg

........................................................